<?xml version="1.0" encoding="UTF-8" standalone="no"?>
<svg width="144px" height="18px" viewBox="0 0 144 18" version="1.1" xmlns="http://www.w3.org/2000/svg" xmlns:xlink="http://www.w3.org/1999/xlink">
    <!-- Generator: Sketch 39.1 (31720) - http://www.bohemiancoding.com/sketch -->
    <title>Logo</title>
    <desc>Created with Sketch.</desc>
    <defs></defs>
    <g id="Page-1" stroke="none" stroke-width="1" fill="none" fill-rule="evenodd">
        <path d="M18.228,1.008 L18.228,16.778 L15.805,16.778 L15.805,1.008 L18.228,1.008 L18.228,1.008 Z M27.757,6.698 L31.066,1.098 L33.815,1.098 L29.155,8.826 L34.071,16.89 L31.392,16.89 L27.734,10.909 L24.215,16.845 L21.512,16.845 L26.382,8.803 L21.536,1.075 L24.332,1.075 L27.757,6.698 L27.757,6.698 Z M50.782,3.292 C52.389,1.657 54.673,0.761 57.003,0.761 C59.752,0.761 61.686,2.015 62.455,2.597 C64.412,4.098 65.601,6.472 65.601,8.936 C65.601,9.474 65.531,10.661 64.925,12.005 C63.55,15.141 60.451,17.023 57.003,17.023 C54.23,17.023 52.25,15.724 51.481,15.119 C49.501,13.574 48.382,11.177 48.452,8.668 C48.522,6.698 49.361,4.726 50.782,3.292 L50.782,3.292 Z M52.133,12.566 C53.298,13.977 55.139,14.806 57.003,14.806 C57.702,14.806 59.333,14.694 60.847,13.574 C62.315,12.476 63.223,10.752 63.223,8.937 C63.223,7.817 62.874,6.921 62.711,6.562 C61.709,4.367 59.449,3.045 57.003,3.045 C55.628,3.045 54.253,3.471 53.182,4.277 C52.506,4.77 50.945,6.226 50.828,8.623 C50.759,10.013 51.224,11.469 52.133,12.566 L52.133,12.566 Z M78.132,1.03 L78.132,3.248 L72.447,3.248 L72.447,7.123 L78.109,7.123 L78.109,9.228 L72.423,9.228 L72.423,16.822 L70.07,16.822 L70.07,1.03 L78.132,1.03 L78.132,1.03 Z M94.658,3.292 C96.265,1.657 98.549,0.761 100.879,0.761 C103.628,0.761 105.562,2.015 106.331,2.597 C108.288,4.098 109.477,6.472 109.477,8.936 C109.477,9.474 109.407,10.661 108.801,12.005 C107.426,15.141 104.327,17.023 100.879,17.023 C98.106,17.023 96.126,15.724 95.357,15.119 C93.377,13.574 92.258,11.177 92.328,8.668 C92.397,6.698 93.236,4.726 94.658,3.292 L94.658,3.292 Z M96.009,12.566 C97.174,13.977 99.015,14.806 100.879,14.806 C101.578,14.806 103.209,14.694 104.723,13.574 C106.191,12.476 107.099,10.752 107.099,8.937 C107.099,7.817 106.75,6.921 106.587,6.562 C105.585,4.367 103.325,3.045 100.879,3.045 C99.504,3.045 98.129,3.471 97.058,4.277 C96.382,4.77 94.821,6.226 94.704,8.623 C94.634,10.013 95.1,11.469 96.009,12.566 L96.009,12.566 Z M125.922,1.075 L128.322,1.075 L128.322,17.45 C126.458,15.613 124.594,13.799 122.707,11.984 C121.588,10.909 120.494,9.834 119.398,8.736 C118.256,7.593 117.161,6.429 116.066,5.242 C116.112,6.003 116.183,6.765 116.206,7.504 C116.229,8.176 116.229,8.848 116.253,9.52 L116.253,16.822 L113.83,16.822 L113.83,8.8817842e-16 C116.137,2.195 118.443,4.39 120.704,6.608 C122.521,8.4 124.315,10.214 126.086,12.006 C126.04,11.513 125.969,10.998 125.969,10.505 C125.946,10.057 125.946,9.631 125.923,9.184 L125.923,1.075 L125.922,1.075 Z M143.416,1.053 L143.416,3.271 L136.799,3.271 L136.799,7.101 L143.37,7.101 L143.37,9.229 L136.776,9.229 L136.776,14.65 L143.323,14.65 L143.323,16.823 L134.423,16.823 L134.423,1.053 L143.416,1.053 L143.416,1.053 Z M9.503,8.388 C9.095,8.083 8.732,7.887 8.278,7.647 L5.352,6.229 C5.126,6.12 4.059,5.684 4.059,4.615 C4.059,4.266 4.24,3.285 5.261,2.849 C5.579,2.718 5.874,2.675 6.214,2.653 C6.849,2.653 7.62,2.806 8.437,3.743 C8.595,3.939 8.755,4.136 8.89,4.332 L10.909,3.22 C10.455,2.653 10.093,2.195 9.503,1.759 C8.233,0.799 6.872,0.69 6.282,0.69 C4.354,0.69 3.198,1.627 2.721,2.151 C1.836,3.111 1.723,4.266 1.723,4.724 C1.723,5.334 1.897,6.336 2.777,7.245 C1.55,7.896 0.488,9.138 0.204,10.157 C0.023,10.876 0,11.465 0,11.77 C0,13.885 1.315,15.826 3.334,16.655 C4.332,17.048 5.171,17.091 5.602,17.091 C7.915,17.091 9.321,15.804 9.866,15.194 C11.082,13.852 11.224,12.405 11.226,11.722 C11.226,10.98 11.044,9.565 9.503,8.388 L9.503,8.388 Z M6.963,14.736 C6.759,14.824 6.26,14.998 5.602,14.998 C4.105,15.02 2.858,14.147 2.358,12.73 C2.2,12.294 2.155,11.857 2.2,11.378 C2.336,9.96 3.457,8.852 4.87,8.556 C5.597,8.858 6.348,9.111 7.053,9.479 C8.071,10.011 8.977,10.724 9.015,11.872 C8.955,13.103 8.142,14.253 6.963,14.736 L6.963,14.736 Z" id="Logo" fill="#000000"></path>
    </g>
</svg>